<svg width="500" height="350" viewBox="0 0 500 350" xmlns="http://www.w3.org/2000/svg">
  <path d="M50,320 C50,320 70,120 250,100 C430,120 450,320 450,320 L50,320 Z" fill="#d4b483" stroke="#967d56" stroke-width="3"/>
  
  <path d="M80,310 C90,180 250,160 420,310 Z" fill="#bba37a" />
  
  <g stroke="#a68b5b" stroke-width="1.5">
    <path d="M55,260 Q75,200 250,190 Q425,200 445,260" fill="none" stroke-width="3" stroke="#c2a070"/>
    <g fill="#a68b5b"> <path d="M65,320 v-60 a15,35 0 0,1 30,0 v60 h-5" /> <rect x="62" y="260" width="6" height="60" />
      <path d="M115,320 v-60 a15,35 0 0,1 30,0 v60 h-5" /> <rect x="112" y="260" width="6" height="60" />
      <path d="M165,315 v-55 a18,35 0 0,1 36,0 v55 h-5" /> <rect x="162" y="260" width="6" height="55" />
      <path d="M225,310 v-50 a20,30 0 0,1 40,0 v50 h-5" /> <rect x="222" y="260" width="6" height="50" />
      <path d="M305,315 v-55 a18,35 0 0,1 36,0 v55 h-5" /> <rect x="302" y="260" width="6" height="55" />
      <path d="M365,320 v-60 a15,35 0 0,1 30,0 v60 h-5" /> <rect x="362" y="260" width="6" height="60" />
      <path d="M415,320 v-60 a15,35 0 0,1 30,0 v60 h-5" /> <rect x="412" y="260" width="6" height="60" />
    </g>

    <path d="M70,200 Q85,150 250,140 Q415,150 430,200" fill="none" stroke-width="3" stroke="#c2a070"/>
    <g fill="#a68b5b"> <path d="M78,260 v-50 a12,30 0 0,1 24,0 v50 h-4" /> <rect x="76" y="210" width="4" height="50" />
      <path d="M125,260 v-50 a12,30 0 0,1 24,0 v50 h-4" /> <rect x="123" y="210" width="4" height="50" />
      <path d="M175,255 v-45 a15,30 0 0,1 30,0 v45 h-4" /> <rect x="173" y="210" width="4" height="45" />
      <path d="M230,250 v-40 a18,25 0 0,1 36,0 v40 h-4" /> <rect x="228" y="210" width="4" height="40" />
      <path d="M300,255 v-45 a15,30 0 0,1 30,0 v45 h-4" /> <rect x="298" y="210" width="4" height="45" />
      <path d="M355,260 v-50 a12,30 0 0,1 24,0 v50 h-4" /> <rect x="353" y="210" width="4" height="50" />
      <path d="M400,260 v-50 a12,30 0 0,1 24,0 v50 h-4" /> <rect x="398" y="210" width="4" height="50" />
    </g>

    <path d="M85,150 Q95,110 250,105 Q405,110 415,150" fill="none" stroke-width="3" stroke="#c2a070"/>
    <g fill="#a68b5b"> <path d="M92,210 v-40 a10,25 0 0,1 20,0 v40 h-3" /> <rect x="90" y="170" width="4" height="40" />
      <path d="M135,210 v-40 a10,25 0 0,1 20,0 v40 h-3" /> <rect x="133" y="170" width="4" height="40" />
      <path d="M180,205 v-35 a12,25 0 0,1 24,0 v35 h-3" /> <rect x="178" y="170" width="4" height="35" />
      <path d="M235,200 v-30 a15,20 0 0,1 30,0 v30 h-3" /> <rect x="233" y="170" width="4" height="30" />
      <path d="M295,205 v-35 a12,25 0 0,1 24,0 v35 h-3" /> <rect x="293" y="170" width="4" height="35" />
      <path d="M345,210 v-40 a10,25 0 0,1 20,0 v40 h-3" /> <rect x="343" y="170" width="4" height="40" />
      <path d="M385,210 v-40 a10,25 0 0,1 20,0 v40 h-3" /> <rect x="383" y="170" width="4" height="40" />
    </g>

    <path d="M95,110 Q105,80 250,75 Q395,80 405,110" fill="none" stroke-width="4" stroke="#c2a070" />
    <g fill="#a68b5b"> <rect x="110" y="85" width="8" height="15" /> <rect x="105" y="80" width="3" height="30" />
        <rect x="150" y="85" width="8" height="15" /> <rect x="145" y="80" width="3" height="30" />
        <rect x="195" y="82" width="8" height="15" /> <rect x="190" y="80" width="3" height="30" />
        <rect x="245" y="80" width="8" height="15" /> <rect x="240" y="78" width="3" height="32" />
        <rect x="300" y="82" width="8" height="15" /> <rect x="295" y="80" width="3" height="30" />
        <rect x="345" y="85" width="8" height="15" /> <rect x="340" y="80" width="3" height="30" />
        <rect x="380" y="85" width="8" height="15" /> <rect x="375" y="80" width="3" height="30" />
    </g>
  </g>

  <path d="M250,75 Q395,80 405,110 L450,320 L250,320 Z" fill="#a68b5b" opacity="0.3" />
  <g stroke="#bba37a" stroke-width="1" opacity="0.5">
    <path d="M60,290 H440 M65,230 H435 M75,180 H425 M85,130 H415" />
    <path d="M100,320 V200 M150,320 V150 M200,320 V110 M300,320 V110 M350,320 V150 M400,320 V200" />
  </g>
</svg>